#define desk_width 8
#define desk_height 8
static unsigned char desk_bits[] = {
   0xff, 0x81, 0x81, 0x81, 0x81, 0x81, 0x81, 0xff };
