#define max_width 18
#define max_height 18
static unsigned char max_bits[] = {
   0x00, 0x00, 0x00, 0x00, 0x00, 0x00, 0x00, 0x00, 0x00, 0x00, 0x00, 0x00,
   0x00, 0x00, 0x00, 0x80, 0x07, 0x00, 0xc0, 0x0f, 0x00, 0xe0, 0x1f, 0x00,
   0xe0, 0x1f, 0x00, 0xe0, 0x1f, 0x00, 0xe0, 0x1f, 0x00, 0xc0, 0x0f, 0x00,
   0x80, 0x07, 0x00, 0x00, 0x00, 0x00, 0x00, 0x00, 0x00, 0x00, 0x00, 0x00,
   0x00, 0x00, 0x00, 0x00, 0x00, 0x00 };
