#define close_width 18
#define close_height 18
static unsigned char close_bits[] = {
   0x00, 0x00, 0x00, 0x00, 0x00, 0x00, 0x00, 0x00, 0x00, 0x00, 0x00, 0x00,
   0x00, 0x00, 0x00, 0x00, 0x03, 0x00, 0x80, 0x07, 0x00, 0xc0, 0x0f, 0x00,
   0xe0, 0x1f, 0x00, 0xe0, 0x1f, 0x00, 0xe0, 0x1f, 0x00, 0xc0, 0x0f, 0x00,
   0x80, 0x07, 0x00, 0x00, 0x03, 0x00, 0x00, 0x00, 0x00, 0x00, 0x00, 0x00,
   0x00, 0x00, 0x00, 0x00, 0x00, 0x00 };
