#define max_width 18
#define max_height 18
static unsigned char max_bits[] = {
   0x00, 0x00, 0x00, 0x00, 0x00, 0x00, 0x00, 0x00, 0x00, 0x00, 0x00, 0x00,
   0x00, 0x00, 0x00, 0x80, 0x01, 0x00, 0xc0, 0x01, 0x00, 0xe0, 0x01, 0x00,
   0xe0, 0x01, 0x00, 0xe0, 0x01, 0x00, 0xe0, 0x01, 0x00, 0xc0, 0x01, 0x00,
   0x80, 0x01, 0x00, 0x00, 0x00, 0x00, 0x00, 0x00, 0x00, 0x00, 0x00, 0x00,
   0x00, 0x00, 0x00, 0x00, 0x00, 0x00 };
