#define max_toggled_width 8
#define max_toggled_height 8
static unsigned char max_toggled_bits[] = {
   0x00, 0x50, 0x30, 0x70, 0x0e, 0x0c, 0x0a, 0x00 };
